<svg width="86" height="24" viewBox="0 0 86 24" fill="none" xmlns="http://www.w3.org/2000/svg">
<g id="Layer 2">
<g id="Group">
<path id="Vector" d="M9.31334 3.97273V10.7425H2.99819V3.97273H0V20.1328H2.99819V13.5829H9.31334V20.1328H12.3115V3.97273H9.31334Z" fill="#33475B"/>
<path id="Vector_2" d="M21.907 14.909C21.907 15.5567 21.6457 16.1778 21.1805 16.6357C20.7153 17.0937 20.0845 17.351 19.4266 17.351C18.7688 17.351 18.1379 17.0937 17.6727 16.6357C17.2076 16.1778 16.9462 15.5567 16.9462 14.909V7.98743H14.1023V14.909C14.1023 16.2979 14.6627 17.6299 15.6602 18.612C16.6578 19.5941 18.0107 20.1458 19.4215 20.1458C20.8322 20.1458 22.1852 19.5941 23.1827 18.612C24.1802 17.6299 24.7407 16.2979 24.7407 14.909V7.98743H21.907V14.909Z" fill="#33475B"/>
<path id="Vector_3" d="M42.9781 8.70042C42.9781 7.28168 43.9315 6.83191 44.9759 6.83191C45.8176 6.83191 46.9297 7.46246 47.6568 8.22751L49.5195 6.06686C48.5896 4.82889 46.7034 3.97273 45.1595 3.97273C42.0747 3.97273 39.8433 5.75158 39.8433 8.70042C39.8433 14.1715 46.6359 12.436 46.6359 15.4977C46.6359 16.442 45.7045 17.2765 44.6381 17.2765C42.9561 17.2765 42.4111 16.4666 41.6384 15.6105L39.5715 17.7263C40.8936 19.3243 42.5242 20.1357 44.4779 20.1357C47.4086 20.1357 49.7663 18.3351 49.7663 15.5208C49.7663 9.44667 42.9737 11.334 42.9737 8.70042" fill="#33475B"/>
<path id="Vector_4" d="M84.9995 17.5513C83.319 17.5513 82.8416 16.8354 82.8416 15.7392V10.8871H85.4535V8.42853H82.8416V5.18466L79.958 6.45878V16.3422C79.958 18.8702 81.7296 20.1443 84.1593 20.1443C84.5404 20.1512 84.9212 20.1212 85.2963 20.0547L85.9999 17.505C85.6826 17.5267 85.3183 17.5484 84.9995 17.5484" fill="#33475B"/>
<path id="Vector_5" d="M32.7318 8.06844C31.323 8.06844 30.3403 8.47048 29.3899 9.38883V4.06964H26.5415V13.9285C26.5415 17.6193 29.2518 20.1473 32.297 20.1473C35.6756 20.1473 38.6474 17.5744 38.6474 14.1093C38.6474 10.6875 35.9121 8.06988 32.7318 8.06988V8.06844ZM32.7142 17.3257C32.075 17.3257 31.4502 17.1391 30.9187 16.7895C30.3872 16.4399 29.973 15.943 29.7284 15.3616C29.4838 14.7802 29.4198 14.1405 29.5445 13.5233C29.6692 12.9061 29.977 12.3392 30.429 11.8942C30.8809 11.4492 31.4568 11.1462 32.0837 11.0235C32.7106 10.9007 33.3604 10.9637 33.9509 11.2045C34.5414 11.4453 35.0462 11.8531 35.4013 12.3764C35.7564 12.8996 35.9459 13.5147 35.9459 14.144C35.9459 14.9878 35.6054 15.7971 34.9994 16.3938C34.3933 16.9905 33.5713 17.3257 32.7142 17.3257Z" fill="#33475B"/>
<path id="Vector_6" d="M63.6596 13.9618C63.6596 10.4909 60.6937 7.92383 57.3092 7.92383C54.264 7.92383 51.5537 10.4518 51.5537 14.1426V24.0072H54.4021V18.6808C55.351 19.5977 56.3352 20.0012 57.7425 20.0012C60.9229 20.0012 63.6581 17.385 63.6581 13.9618H63.6596ZM60.9625 13.9271C60.9625 14.5564 60.773 15.1715 60.4179 15.6947C60.0628 16.2179 59.558 16.6258 58.9675 16.8666C58.377 17.1074 57.7272 17.1704 57.1003 17.0476C56.4734 16.9249 55.8975 16.6218 55.4456 16.1769C54.9936 15.7319 54.6858 15.165 54.5611 14.5478C54.4364 13.9306 54.5004 13.2909 54.745 12.7095C54.9896 12.1281 55.4038 11.6312 55.9353 11.2816C56.4668 10.932 57.0916 10.7454 57.7308 10.7454C58.5879 10.7454 59.4099 11.0806 60.016 11.6773C60.622 12.274 60.9625 13.0832 60.9625 13.9271Z" fill="#33475B"/>
</g>
<path id="Vector_7" d="M72.8614 7.78788V4.97065C73.2396 4.79669 73.5598 4.52056 73.7847 4.1744C74.0097 3.82824 74.1301 3.4263 74.1321 3.01536V2.95028C74.1321 2.37494 73.8999 1.82316 73.4867 1.41634C73.0734 1.00951 72.513 0.780954 71.9286 0.780954H71.8625C71.2781 0.780954 70.7176 1.00951 70.3044 1.41634C69.8912 1.82316 69.659 2.37494 69.659 2.95028V3.01536C69.661 3.4263 69.7814 3.82824 70.0064 4.1744C70.2313 4.52056 70.5515 4.79669 70.9297 4.97065V7.78788C69.8428 7.95159 68.8191 8.39512 67.9623 9.07357L60.1151 3.05586C60.1706 2.85741 60.2002 2.65281 60.2032 2.447C60.2041 1.96354 60.0593 1.49068 59.7871 1.08824C59.515 0.685806 59.1278 0.371862 58.6744 0.186123C58.221 0.00038428 57.7219 -0.0488052 57.2401 0.0447766C56.7583 0.138358 56.3155 0.370507 55.9678 0.711859C55.62 1.05321 55.3829 1.48843 55.2864 1.96247C55.1899 2.43651 55.2384 2.92807 55.4257 3.37497C55.6131 3.82188 55.9308 4.20405 56.3388 4.47315C56.7467 4.74226 57.2266 4.8862 57.7177 4.88677C58.1471 4.88488 58.5685 4.77218 58.9399 4.55992L66.6682 10.4793C65.9737 11.5119 65.6114 12.7265 65.6285 13.9647C65.6455 15.203 66.0411 16.4075 66.7637 17.4211L64.4133 19.7351C64.2232 19.6753 64.0252 19.6437 63.8257 19.6411C63.4226 19.6414 63.0285 19.7593 62.6935 19.98C62.3584 20.2007 62.0973 20.5142 61.9431 20.8809C61.789 21.2477 61.7487 21.6512 61.8275 22.0404C61.9062 22.4297 62.1003 22.7872 62.3854 23.0679C62.6705 23.3485 63.0336 23.5397 63.429 23.6172C63.8244 23.6947 64.2342 23.655 64.6068 23.5033C64.9793 23.3515 65.2977 23.0945 65.5219 22.7646C65.746 22.4347 65.8658 22.0468 65.8661 21.6499C65.8636 21.4535 65.8314 21.2585 65.7706 21.0714L68.096 18.782C68.8543 19.3565 69.736 19.7525 70.6737 19.9397C71.6114 20.1269 72.5802 20.1003 73.5059 19.8619C74.4315 19.6236 75.2895 19.1799 76.0141 18.5647C76.7386 17.9496 77.3106 17.1793 77.6861 16.3129C78.0617 15.4466 78.2308 14.5071 78.1806 13.5664C78.1304 12.6257 77.8621 11.7089 77.3964 10.886C76.9308 10.0632 76.28 9.35615 75.4939 8.81915C74.7078 8.28214 73.8073 7.92938 72.8614 7.78788ZM71.8977 17.0524C71.2617 17.0518 70.64 16.8656 70.1114 16.5173C69.5828 16.169 69.1709 15.6742 68.9278 15.0955C68.6847 14.5168 68.6213 13.8802 68.7457 13.266C68.87 12.6519 69.1765 12.0878 69.6264 11.6451C70.0763 11.2024 70.6494 10.9009 71.2732 10.7787C71.8971 10.6566 72.5438 10.7193 73.1315 10.9589C73.7191 11.1985 74.2215 11.6042 74.5751 12.1248C74.9286 12.6454 75.1175 13.2575 75.1177 13.8837C75.1177 14.7237 74.7788 15.5293 74.1755 16.1233C73.5722 16.7172 72.7539 17.0509 71.9007 17.0509" fill="#FF7A59"/>
</g>
</svg>
