<svg width="24" height="22" viewBox="0 0 24 22" fill="none" xmlns="http://www.w3.org/2000/svg">
<g id="Group">
<path id="Vector" d="M23.6 0.200001C23.4 7.59959e-07 23 0 22.7 0L17 1.7V21.8L23.3 20C23.7 19.9 24 19.5 24 19V1C24 0.7 23.9 0.400001 23.6 0.200001Z" fill="#C4B5FD"/>
<path id="Vector_2" d="M15 1.70001L9 0.200012V20.3L15 21.8V1.70001Z" fill="#1DB5BE"/>
<path id="Vector_3" d="M7 0.200012L0.700001 2.00001C0.300001 2.20001 0 2.60001 0 3.00001V21C0 21.3 0.0999996 21.6 0.4 21.8C0.6 21.9 0.8 22 1 22H1.3L7 20.3V0.200012Z" fill="#7C3AED"/>
</g>
</svg>
